<svg xmlns="http://www.w3.org/2000/svg" viewBox="0 0 100 100">
  <rect width="100" height="100" rx="22" fill="#1E7F8C"/>
  <rect x="47" y="8" width="6" height="84" rx="3" fill="white"/>
  <path d="M50 22 C35 16 18 20 12 28 C20 24 35 26 50 32 Z" fill="white"/>
  <path d="M50 22 C65 16 82 20 88 28 C80 24 65 26 50 32 Z" fill="white"/>
  <path d="M50 30 C38 33 34 40 40 47 C46 54 42 61 34 63" 
        stroke="white" stroke-width="4" fill="none" stroke-linecap="round"/>
  <path d="M50 30 C62 33 66 40 60 47 C54 54 58 61 66 63" 
        stroke="white" stroke-width="4" fill="none" stroke-linecap="round"/>
  <circle cx="33" cy="65" r="4" fill="white"/>
  <circle cx="67" cy="65" r="4" fill="white"/>
  <circle cx="50" cy="10" r="5" fill="#63C9D6"/>
</svg>
